<?xml version="1.0" encoding="UTF-8" standalone="no"?>
<!DOCTYPE svg PUBLIC "-//W3C//DTD SVG 1.1//EN"
 "http://www.w3.org/Graphics/SVG/1.1/DTD/svg11.dtd">
<!-- Generated by graphviz version 7.0.6 (20230106.0513)
 -->
<!-- Pages: 1 -->
<svg width="1208pt" height="476pt"
 viewBox="0.00 0.00 1208.31 476.00" xmlns="http://www.w3.org/2000/svg" xmlns:xlink="http://www.w3.org/1999/xlink">
<g id="graph0" class="graph" transform="scale(1 1) rotate(0) translate(4 472)">
<polygon fill="white" stroke="none" points="-4,4 -4,-472 1204.31,-472 1204.31,4 -4,4"/>
<!-- [root] aws_cloudwatch_event_rule.trigger_scraper (expand) -->
<g id="node1" class="node">
<title>[root] aws_cloudwatch_event_rule.trigger_scraper (expand)</title>
<polygon fill="none" stroke="black" points="919.31,-180 663.31,-180 663.31,-144 919.31,-144 919.31,-180"/>
<text text-anchor="middle" x="791.31" y="-158.3" font-family="Times,serif" font-size="14.00">aws_cloudwatch_event_rule.trigger_scraper</text>
</g>
<!-- [root] provider[&quot;registry.terraform.io/hashicorp/aws&quot;] -->
<g id="node11" class="node">
<title>[root] provider[&quot;registry.terraform.io/hashicorp/aws&quot;]</title>
<polygon fill="none" stroke="black" points="886.31,-36 633.78,-18 886.31,0 1138.85,-18 886.31,-36"/>
<text text-anchor="middle" x="886.31" y="-14.3" font-family="Times,serif" font-size="14.00">provider[&quot;registry.terraform.io/hashicorp/aws&quot;]</text>
</g>
<!-- [root] aws_cloudwatch_event_rule.trigger_scraper (expand)&#45;&gt;[root] provider[&quot;registry.terraform.io/hashicorp/aws&quot;] -->
<g id="edge1" class="edge">
<title>[root] aws_cloudwatch_event_rule.trigger_scraper (expand)&#45;&gt;[root] provider[&quot;registry.terraform.io/hashicorp/aws&quot;]</title>
<path fill="none" stroke="black" d="M827.33,-143.57C841.84,-134.82 857.44,-122.88 867.31,-108 879.21,-90.08 883.83,-66.04 885.54,-47.46"/>
<polygon fill="black" stroke="black" points="889.02,-47.89 886.2,-37.67 882.04,-47.42 889.02,-47.89"/>
</g>
<!-- [root] aws_cloudwatch_event_target.trigger_scraper_target (expand) -->
<g id="node2" class="node">
<title>[root] aws_cloudwatch_event_target.trigger_scraper_target (expand)</title>
<polygon fill="none" stroke="black" points="915.81,-324 612.81,-324 612.81,-288 915.81,-288 915.81,-324"/>
<text text-anchor="middle" x="764.31" y="-302.3" font-family="Times,serif" font-size="14.00">aws_cloudwatch_event_target.trigger_scraper_target</text>
</g>
<!-- [root] aws_cloudwatch_event_target.trigger_scraper_target (expand)&#45;&gt;[root] aws_cloudwatch_event_rule.trigger_scraper (expand) -->
<g id="edge2" class="edge">
<title>[root] aws_cloudwatch_event_target.trigger_scraper_target (expand)&#45;&gt;[root] aws_cloudwatch_event_rule.trigger_scraper (expand)</title>
<path fill="none" stroke="black" d="M767.62,-287.59C772.18,-263.61 780.45,-220.14 785.91,-191.42"/>
<polygon fill="black" stroke="black" points="789.35,-192.08 787.78,-181.6 782.47,-190.77 789.35,-192.08"/>
</g>
<!-- [root] aws_lambda_function.scraper (expand) -->
<g id="node5" class="node">
<title>[root] aws_lambda_function.scraper (expand)</title>
<polygon fill="none" stroke="black" points="598.81,-252 419.81,-252 419.81,-216 598.81,-216 598.81,-252"/>
<text text-anchor="middle" x="509.31" y="-230.3" font-family="Times,serif" font-size="14.00">aws_lambda_function.scraper</text>
</g>
<!-- [root] aws_cloudwatch_event_target.trigger_scraper_target (expand)&#45;&gt;[root] aws_lambda_function.scraper (expand) -->
<g id="edge3" class="edge">
<title>[root] aws_cloudwatch_event_target.trigger_scraper_target (expand)&#45;&gt;[root] aws_lambda_function.scraper (expand)</title>
<path fill="none" stroke="black" d="M700.62,-287.52C665.04,-277.75 620.53,-265.53 583.4,-255.34"/>
<polygon fill="black" stroke="black" points="584.66,-252.05 574.09,-252.78 582.81,-258.8 584.66,-252.05"/>
</g>
<!-- [root] aws_cloudwatch_log_group.scraper (expand) -->
<g id="node3" class="node">
<title>[root] aws_cloudwatch_log_group.scraper (expand)</title>
<polygon fill="none" stroke="black" points="594.31,-324 382.31,-324 382.31,-288 594.31,-288 594.31,-324"/>
<text text-anchor="middle" x="488.31" y="-302.3" font-family="Times,serif" font-size="14.00">aws_cloudwatch_log_group.scraper</text>
</g>
<!-- [root] aws_cloudwatch_log_group.scraper (expand)&#45;&gt;[root] aws_lambda_function.scraper (expand) -->
<g id="edge4" class="edge">
<title>[root] aws_cloudwatch_log_group.scraper (expand)&#45;&gt;[root] aws_lambda_function.scraper (expand)</title>
<path fill="none" stroke="black" d="M493.5,-287.7C495.74,-280.24 498.42,-271.32 500.92,-262.97"/>
<polygon fill="black" stroke="black" points="504.23,-264.14 503.75,-253.55 497.52,-262.13 504.23,-264.14"/>
</g>
<!-- [root] aws_iam_role.lambda_role (expand) -->
<g id="node4" class="node">
<title>[root] aws_iam_role.lambda_role (expand)</title>
<polygon fill="none" stroke="black" points="621.81,-180 456.81,-180 456.81,-144 621.81,-144 621.81,-180"/>
<text text-anchor="middle" x="539.31" y="-158.3" font-family="Times,serif" font-size="14.00">aws_iam_role.lambda_role</text>
</g>
<!-- [root] data.aws_iam_policy_document.lambda&#45;role&#45;policy (expand) -->
<g id="node9" class="node">
<title>[root] data.aws_iam_policy_document.lambda&#45;role&#45;policy (expand)</title>
<polygon fill="none" stroke="black" points="857.81,-108 556.81,-108 556.81,-72 857.81,-72 857.81,-108"/>
<text text-anchor="middle" x="707.31" y="-86.3" font-family="Times,serif" font-size="14.00">data.aws_iam_policy_document.lambda&#45;role&#45;policy</text>
</g>
<!-- [root] aws_iam_role.lambda_role (expand)&#45;&gt;[root] data.aws_iam_policy_document.lambda&#45;role&#45;policy (expand) -->
<g id="edge5" class="edge">
<title>[root] aws_iam_role.lambda_role (expand)&#45;&gt;[root] data.aws_iam_policy_document.lambda&#45;role&#45;policy (expand)</title>
<path fill="none" stroke="black" d="M581.27,-143.52C603.61,-134.21 631.28,-122.68 655.01,-112.79"/>
<polygon fill="black" stroke="black" points="656.32,-116.04 664.2,-108.96 653.62,-109.58 656.32,-116.04"/>
</g>
<!-- [root] aws_lambda_function.scraper (expand)&#45;&gt;[root] aws_iam_role.lambda_role (expand) -->
<g id="edge6" class="edge">
<title>[root] aws_lambda_function.scraper (expand)&#45;&gt;[root] aws_iam_role.lambda_role (expand)</title>
<path fill="none" stroke="black" d="M516.73,-215.7C519.96,-208.15 523.83,-199.12 527.45,-190.68"/>
<polygon fill="black" stroke="black" points="530.66,-192.07 531.39,-181.5 524.23,-189.31 530.66,-192.07"/>
</g>
<!-- [root] data.archive_file.scraper (expand) -->
<g id="node8" class="node">
<title>[root] data.archive_file.scraper (expand)</title>
<polygon fill="none" stroke="black" points="354.31,-180 204.31,-180 204.31,-144 354.31,-144 354.31,-180"/>
<text text-anchor="middle" x="279.31" y="-158.3" font-family="Times,serif" font-size="14.00">data.archive_file.scraper</text>
</g>
<!-- [root] aws_lambda_function.scraper (expand)&#45;&gt;[root] data.archive_file.scraper (expand) -->
<g id="edge7" class="edge">
<title>[root] aws_lambda_function.scraper (expand)&#45;&gt;[root] data.archive_file.scraper (expand)</title>
<path fill="none" stroke="black" d="M451.87,-215.52C420.19,-205.88 380.66,-193.84 347.43,-183.73"/>
<polygon fill="black" stroke="black" points="348.46,-180.39 337.87,-180.82 346.42,-187.08 348.46,-180.39"/>
</g>
<!-- [root] aws_s3_bucket.bucket (expand) -->
<g id="node6" class="node">
<title>[root] aws_s3_bucket.bucket (expand)</title>
<polygon fill="none" stroke="black" points="1098.81,-252 959.81,-252 959.81,-216 1098.81,-216 1098.81,-252"/>
<text text-anchor="middle" x="1029.31" y="-230.3" font-family="Times,serif" font-size="14.00">aws_s3_bucket.bucket</text>
</g>
<!-- [root] aws_s3_bucket.bucket (expand)&#45;&gt;[root] provider[&quot;registry.terraform.io/hashicorp/aws&quot;] -->
<g id="edge8" class="edge">
<title>[root] aws_s3_bucket.bucket (expand)&#45;&gt;[root] provider[&quot;registry.terraform.io/hashicorp/aws&quot;]</title>
<path fill="none" stroke="black" d="M1017.85,-215.85C992.89,-178.49 933.47,-89.56 903.79,-45.16"/>
<polygon fill="black" stroke="black" points="906.74,-43.27 898.27,-36.9 900.92,-47.16 906.74,-43.27"/>
</g>
<!-- [root] aws_s3_bucket_versioning.bucket_versioning (expand) -->
<g id="node7" class="node">
<title>[root] aws_s3_bucket_versioning.bucket_versioning (expand)</title>
<polygon fill="none" stroke="black" points="1200.31,-324 934.31,-324 934.31,-288 1200.31,-288 1200.31,-324"/>
<text text-anchor="middle" x="1067.31" y="-302.3" font-family="Times,serif" font-size="14.00">aws_s3_bucket_versioning.bucket_versioning</text>
</g>
<!-- [root] aws_s3_bucket_versioning.bucket_versioning (expand)&#45;&gt;[root] aws_s3_bucket.bucket (expand) -->
<g id="edge9" class="edge">
<title>[root] aws_s3_bucket_versioning.bucket_versioning (expand)&#45;&gt;[root] aws_s3_bucket.bucket (expand)</title>
<path fill="none" stroke="black" d="M1057.92,-287.7C1053.73,-279.98 1048.7,-270.71 1044.03,-262.11"/>
<polygon fill="black" stroke="black" points="1047.17,-260.55 1039.32,-253.43 1041.02,-263.89 1047.17,-260.55"/>
</g>
<!-- [root] provider[&quot;registry.terraform.io/hashicorp/archive&quot;] -->
<g id="node10" class="node">
<title>[root] provider[&quot;registry.terraform.io/hashicorp/archive&quot;]</title>
<polygon fill="none" stroke="black" points="269.31,-108 0.19,-90 269.31,-72 538.44,-90 269.31,-108"/>
<text text-anchor="middle" x="269.31" y="-86.3" font-family="Times,serif" font-size="14.00">provider[&quot;registry.terraform.io/hashicorp/archive&quot;]</text>
</g>
<!-- [root] data.archive_file.scraper (expand)&#45;&gt;[root] provider[&quot;registry.terraform.io/hashicorp/archive&quot;] -->
<g id="edge10" class="edge">
<title>[root] data.archive_file.scraper (expand)&#45;&gt;[root] provider[&quot;registry.terraform.io/hashicorp/archive&quot;]</title>
<path fill="none" stroke="black" d="M276.84,-143.7C275.79,-136.32 274.53,-127.52 273.35,-119.25"/>
<polygon fill="black" stroke="black" points="276.85,-119.01 271.97,-109.6 269.92,-120 276.85,-119.01"/>
</g>
<!-- [root] data.aws_iam_policy_document.lambda&#45;role&#45;policy (expand)&#45;&gt;[root] provider[&quot;registry.terraform.io/hashicorp/aws&quot;] -->
<g id="edge11" class="edge">
<title>[root] data.aws_iam_policy_document.lambda&#45;role&#45;policy (expand)&#45;&gt;[root] provider[&quot;registry.terraform.io/hashicorp/aws&quot;]</title>
<path fill="none" stroke="black" d="M752.02,-71.52C778.14,-61.3 811.12,-48.41 837.86,-37.95"/>
<polygon fill="black" stroke="black" points="839.07,-41.23 847.11,-34.33 836.52,-34.71 839.07,-41.23"/>
</g>
<!-- [root] provider[&quot;registry.terraform.io/hashicorp/archive&quot;] (close) -->
<g id="node12" class="node">
<title>[root] provider[&quot;registry.terraform.io/hashicorp/archive&quot;] (close)</title>
<ellipse fill="none" stroke="black" cx="279.31" cy="-378" rx="239.36" ry="18"/>
<text text-anchor="middle" x="279.31" y="-374.3" font-family="Times,serif" font-size="14.00">[root] provider[&quot;registry.terraform.io/hashicorp/archive&quot;] (close)</text>
</g>
<!-- [root] provider[&quot;registry.terraform.io/hashicorp/archive&quot;] (close)&#45;&gt;[root] data.archive_file.scraper (expand) -->
<g id="edge12" class="edge">
<title>[root] provider[&quot;registry.terraform.io/hashicorp/archive&quot;] (close)&#45;&gt;[root] data.archive_file.scraper (expand)</title>
<path fill="none" stroke="black" d="M279.31,-359.85C279.31,-323.14 279.31,-236.66 279.31,-191.53"/>
<polygon fill="black" stroke="black" points="282.81,-191.75 279.31,-181.75 275.81,-191.75 282.81,-191.75"/>
</g>
<!-- [root] provider[&quot;registry.terraform.io/hashicorp/aws&quot;] (close) -->
<g id="node13" class="node">
<title>[root] provider[&quot;registry.terraform.io/hashicorp/aws&quot;] (close)</title>
<ellipse fill="none" stroke="black" cx="764.31" cy="-378" rx="227.46" ry="18"/>
<text text-anchor="middle" x="764.31" y="-374.3" font-family="Times,serif" font-size="14.00">[root] provider[&quot;registry.terraform.io/hashicorp/aws&quot;] (close)</text>
</g>
<!-- [root] provider[&quot;registry.terraform.io/hashicorp/aws&quot;] (close)&#45;&gt;[root] aws_cloudwatch_event_target.trigger_scraper_target (expand) -->
<g id="edge13" class="edge">
<title>[root] provider[&quot;registry.terraform.io/hashicorp/aws&quot;] (close)&#45;&gt;[root] aws_cloudwatch_event_target.trigger_scraper_target (expand)</title>
<path fill="none" stroke="black" d="M764.31,-359.7C764.31,-352.41 764.31,-343.73 764.31,-335.54"/>
<polygon fill="black" stroke="black" points="767.81,-335.62 764.31,-325.62 760.81,-335.62 767.81,-335.62"/>
</g>
<!-- [root] provider[&quot;registry.terraform.io/hashicorp/aws&quot;] (close)&#45;&gt;[root] aws_cloudwatch_log_group.scraper (expand) -->
<g id="edge14" class="edge">
<title>[root] provider[&quot;registry.terraform.io/hashicorp/aws&quot;] (close)&#45;&gt;[root] aws_cloudwatch_log_group.scraper (expand)</title>
<path fill="none" stroke="black" d="M698.55,-360.32C659.41,-350.39 609.47,-337.73 568.09,-327.23"/>
<polygon fill="black" stroke="black" points="568.95,-323.84 558.4,-324.78 567.23,-330.63 568.95,-323.84"/>
</g>
<!-- [root] provider[&quot;registry.terraform.io/hashicorp/aws&quot;] (close)&#45;&gt;[root] aws_s3_bucket_versioning.bucket_versioning (expand) -->
<g id="edge15" class="edge">
<title>[root] provider[&quot;registry.terraform.io/hashicorp/aws&quot;] (close)&#45;&gt;[root] aws_s3_bucket_versioning.bucket_versioning (expand)</title>
<path fill="none" stroke="black" d="M835.74,-360.5C879.05,-350.49 934.63,-337.65 980.48,-327.06"/>
<polygon fill="black" stroke="black" points="981.18,-330.49 990.13,-324.83 979.6,-323.67 981.18,-330.49"/>
</g>
<!-- [root] root -->
<g id="node14" class="node">
<title>[root] root</title>
<ellipse fill="none" stroke="black" cx="521.31" cy="-450" rx="47.39" ry="18"/>
<text text-anchor="middle" x="521.31" y="-446.3" font-family="Times,serif" font-size="14.00">[root] root</text>
</g>
<!-- [root] root&#45;&gt;[root] provider[&quot;registry.terraform.io/hashicorp/archive&quot;] (close) -->
<g id="edge16" class="edge">
<title>[root] root&#45;&gt;[root] provider[&quot;registry.terraform.io/hashicorp/archive&quot;] (close)</title>
<path fill="none" stroke="black" d="M484.3,-438.29C448.29,-427.88 392.7,-411.8 348.49,-399.01"/>
<polygon fill="black" stroke="black" points="349.55,-395.67 338.97,-396.26 347.6,-402.4 349.55,-395.67"/>
</g>
<!-- [root] root&#45;&gt;[root] provider[&quot;registry.terraform.io/hashicorp/aws&quot;] (close) -->
<g id="edge17" class="edge">
<title>[root] root&#45;&gt;[root] provider[&quot;registry.terraform.io/hashicorp/aws&quot;] (close)</title>
<path fill="none" stroke="black" d="M558.22,-438.37C594.33,-427.97 650.22,-411.87 694.7,-399.05"/>
<polygon fill="black" stroke="black" points="695.64,-402.42 704.28,-396.29 693.71,-395.7 695.64,-402.42"/>
</g>
</g>
</svg>
